<mxfile host="app.diagrams.net" modified="2020-07-28T15:40:29.078Z" agent="5.0 (Macintosh; Intel Mac OS X 10_15_5) AppleWebKit/537.36 (KHTML, like Gecko) Chrome/83.0.4103.116 Safari/537.36 Edg/83.0.478.61" etag="Ycu3M64YvNeD964L05PY" version="13.5.4" type="github">
  <diagram id="OTvxTW21jp-LGOUuQj5h" name="Page-1">
    <mxGraphModel dx="2276" dy="1823" grid="1" gridSize="10" guides="1" tooltips="1" connect="1" arrows="1" fold="1" page="1" pageScale="1" pageWidth="850" pageHeight="1100" math="0" shadow="0">
      <root>
        <mxCell id="0" />
        <mxCell id="1" parent="0" />
        <mxCell id="wK3Uw1pxNS2twAb2fiw_-3" value="" style="rounded=1;whiteSpace=wrap;html=1;" parent="1" vertex="1">
          <mxGeometry x="480" y="-20.5" width="560" height="1000" as="geometry" />
        </mxCell>
        <mxCell id="9HuW_AX4d_CLtjcuJ3QG-1" value="" style="rounded=1;whiteSpace=wrap;html=1;" parent="1" vertex="1">
          <mxGeometry x="-81" y="-10" width="560" height="1000" as="geometry" />
        </mxCell>
        <mxCell id="9HuW_AX4d_CLtjcuJ3QG-5" value="" style="rounded=1;whiteSpace=wrap;html=1;" parent="1" vertex="1">
          <mxGeometry x="-70" y="486" width="1100" height="464" as="geometry" />
        </mxCell>
        <mxCell id="15mZKL4qg4X-mbOuNsfx-7" value="" style="rounded=1;whiteSpace=wrap;html=1;dashed=1;" vertex="1" parent="1">
          <mxGeometry x="-60" y="495.5" width="1070" height="444.5" as="geometry" />
        </mxCell>
        <mxCell id="15mZKL4qg4X-mbOuNsfx-5" value="" style="rounded=1;whiteSpace=wrap;html=1;dashed=1;" vertex="1" parent="1">
          <mxGeometry y="160" width="930" height="290" as="geometry" />
        </mxCell>
        <mxCell id="PBlHZ4TpvklCPcyJVBNF-6" style="edgeStyle=orthogonalEdgeStyle;rounded=0;orthogonalLoop=1;jettySize=auto;html=1;exitX=0.4;exitY=0.1;exitDx=0;exitDy=0;exitPerimeter=0;entryX=0.75;entryY=1;entryDx=0;entryDy=0;" parent="1" source="9HuW_AX4d_CLtjcuJ3QG-125" target="9HuW_AX4d_CLtjcuJ3QG-38" edge="1">
          <mxGeometry relative="1" as="geometry" />
        </mxCell>
        <mxCell id="9HuW_AX4d_CLtjcuJ3QG-125" value="" style="ellipse;shape=cloud;whiteSpace=wrap;html=1;fontSize=18;" parent="1" vertex="1">
          <mxGeometry x="490" y="1215" width="230" height="155" as="geometry" />
        </mxCell>
        <mxCell id="9HuW_AX4d_CLtjcuJ3QG-126" value="" style="shape=document;whiteSpace=wrap;html=1;boundedLbl=1;fontSize=18;" parent="1" vertex="1">
          <mxGeometry x="1080" y="200" width="120" height="170" as="geometry" />
        </mxCell>
        <mxCell id="pkwpnZTuEIStfYXqcOfN-33" style="edgeStyle=orthogonalEdgeStyle;rounded=0;orthogonalLoop=1;jettySize=auto;html=1;exitX=0.25;exitY=0;exitDx=0;exitDy=0;startArrow=classic;startFill=1;endArrow=none;endFill=0;strokeWidth=2;" parent="1" source="9HuW_AX4d_CLtjcuJ3QG-5" edge="1">
          <mxGeometry relative="1" as="geometry">
            <mxPoint x="292.1724137931035" y="460.0000000000001" as="targetPoint" />
          </mxGeometry>
        </mxCell>
        <mxCell id="pkwpnZTuEIStfYXqcOfN-34" style="edgeStyle=orthogonalEdgeStyle;rounded=0;orthogonalLoop=1;jettySize=auto;html=1;exitX=0.75;exitY=0;exitDx=0;exitDy=0;startArrow=classic;startFill=1;endArrow=none;endFill=0;strokeWidth=2;" parent="1" source="9HuW_AX4d_CLtjcuJ3QG-5" edge="1">
          <mxGeometry relative="1" as="geometry">
            <mxPoint x="657.689655172414" y="460.0000000000001" as="targetPoint" />
          </mxGeometry>
        </mxCell>
        <mxCell id="15mZKL4qg4X-mbOuNsfx-1" style="edgeStyle=orthogonalEdgeStyle;rounded=0;orthogonalLoop=1;jettySize=auto;html=1;exitX=0.5;exitY=1;exitDx=0;exitDy=0;entryX=0.5;entryY=0;entryDx=0;entryDy=0;" edge="1" parent="1" source="9HuW_AX4d_CLtjcuJ3QG-94" target="9HuW_AX4d_CLtjcuJ3QG-38">
          <mxGeometry relative="1" as="geometry">
            <Array as="points">
              <mxPoint x="205" y="1000" />
              <mxPoint x="462" y="1000" />
            </Array>
          </mxGeometry>
        </mxCell>
        <mxCell id="9HuW_AX4d_CLtjcuJ3QG-94" value="" style="rounded=0;whiteSpace=wrap;html=1;fontSize=18;" parent="1" vertex="1">
          <mxGeometry x="120" y="743" width="170" height="197" as="geometry" />
        </mxCell>
        <mxCell id="9HuW_AX4d_CLtjcuJ3QG-78" style="edgeStyle=orthogonalEdgeStyle;rounded=0;orthogonalLoop=1;jettySize=auto;html=1;exitX=0.75;exitY=1;exitDx=0;exitDy=0;entryX=0.75;entryY=1;entryDx=0;entryDy=0;startArrow=classic;startFill=1;endArrow=classic;endFill=1;fontSize=18;dashed=1;" parent="1" source="9HuW_AX4d_CLtjcuJ3QG-62" target="9HuW_AX4d_CLtjcuJ3QG-63" edge="1">
          <mxGeometry relative="1" as="geometry">
            <Array as="points">
              <mxPoint x="238" y="410" />
              <mxPoint x="418" y="410" />
            </Array>
          </mxGeometry>
        </mxCell>
        <mxCell id="9HuW_AX4d_CLtjcuJ3QG-90" value="Port: 636" style="edgeStyle=orthogonalEdgeStyle;rounded=0;orthogonalLoop=1;jettySize=auto;html=1;exitX=0.5;exitY=1;exitDx=0;exitDy=0;entryX=0;entryY=0.5;entryDx=0;entryDy=0;startArrow=classic;startFill=1;endArrow=classic;endFill=1;fontSize=12;" parent="1" source="9HuW_AX4d_CLtjcuJ3QG-62" target="9HuW_AX4d_CLtjcuJ3QG-126" edge="1">
          <mxGeometry x="0.777" relative="1" as="geometry">
            <mxPoint x="917.6999999999998" y="310.5" as="targetPoint" />
            <Array as="points">
              <mxPoint x="195" y="400" />
              <mxPoint x="918" y="400" />
              <mxPoint x="918" y="295" />
            </Array>
            <mxPoint as="offset" />
          </mxGeometry>
        </mxCell>
        <mxCell id="9HuW_AX4d_CLtjcuJ3QG-122" value="Port 1858" style="edgeStyle=orthogonalEdgeStyle;rounded=0;orthogonalLoop=1;jettySize=auto;html=1;exitX=0.25;exitY=1;exitDx=0;exitDy=0;entryX=0.25;entryY=1;entryDx=0;entryDy=0;startArrow=classic;startFill=1;endArrow=classic;endFill=1;fontSize=18;strokeWidth=2;" parent="1" source="9HuW_AX4d_CLtjcuJ3QG-62" target="9HuW_AX4d_CLtjcuJ3QG-66" edge="1">
          <mxGeometry x="-0.6552" y="68" relative="1" as="geometry">
            <Array as="points">
              <mxPoint x="153" y="460" />
              <mxPoint x="533" y="460" />
            </Array>
            <mxPoint x="68" y="68" as="offset" />
          </mxGeometry>
        </mxCell>
        <mxCell id="9HuW_AX4d_CLtjcuJ3QG-62" value="" style="rounded=0;whiteSpace=wrap;html=1;fontSize=18;" parent="1" vertex="1">
          <mxGeometry x="110" y="190" width="170" height="200" as="geometry" />
        </mxCell>
        <mxCell id="9HuW_AX4d_CLtjcuJ3QG-3" value="CSSC Datacenter&lt;br&gt;(Thurs Maint)" style="text;html=1;strokeColor=none;fillColor=none;align=center;verticalAlign=middle;whiteSpace=wrap;rounded=0;fontSize=18;fontStyle=1" parent="1" vertex="1">
          <mxGeometry x="90" y="50" width="190" height="50" as="geometry" />
        </mxCell>
        <mxCell id="9HuW_AX4d_CLtjcuJ3QG-4" value="WARF" style="text;html=1;strokeColor=none;fillColor=none;align=center;verticalAlign=middle;whiteSpace=wrap;rounded=0;fontSize=18;fontStyle=1" parent="1" vertex="1">
          <mxGeometry x="550" y="310" width="40" height="20" as="geometry" />
        </mxCell>
        <mxCell id="9HuW_AX4d_CLtjcuJ3QG-6" value="CCI (VMs in CSSC)" style="text;html=1;strokeColor=none;fillColor=none;align=center;verticalAlign=middle;whiteSpace=wrap;rounded=0;fontSize=18;fontStyle=1" parent="1" vertex="1">
          <mxGeometry x="150" y="495.5" width="180" height="20" as="geometry" />
        </mxCell>
        <mxCell id="9HuW_AX4d_CLtjcuJ3QG-73" style="edgeStyle=orthogonalEdgeStyle;rounded=0;orthogonalLoop=1;jettySize=auto;html=1;exitX=0.5;exitY=1;exitDx=0;exitDy=0;entryX=0.5;entryY=0;entryDx=0;entryDy=0;startArrow=classic;startFill=1;endArrow=classic;endFill=1;fontSize=18;" parent="1" source="9HuW_AX4d_CLtjcuJ3QG-8" target="9HuW_AX4d_CLtjcuJ3QG-62" edge="1">
          <mxGeometry relative="1" as="geometry" />
        </mxCell>
        <mxCell id="9HuW_AX4d_CLtjcuJ3QG-75" style="edgeStyle=orthogonalEdgeStyle;rounded=0;orthogonalLoop=1;jettySize=auto;html=1;exitX=0.5;exitY=1;exitDx=0;exitDy=0;entryX=0.5;entryY=0;entryDx=0;entryDy=0;startArrow=classic;startFill=1;endArrow=classic;endFill=1;fontSize=18;" parent="1" source="9HuW_AX4d_CLtjcuJ3QG-8" target="9HuW_AX4d_CLtjcuJ3QG-63" edge="1">
          <mxGeometry relative="1" as="geometry" />
        </mxCell>
        <mxCell id="9HuW_AX4d_CLtjcuJ3QG-8" value="Shared Data Store" style="shape=datastore;whiteSpace=wrap;html=1;" parent="1" vertex="1">
          <mxGeometry x="340" y="20" width="85" height="130" as="geometry" />
        </mxCell>
        <mxCell id="9HuW_AX4d_CLtjcuJ3QG-13" value="Hostname: PREROGATIVE&lt;br&gt;&lt;div&gt;IP: 10.134.95.10&lt;/div&gt;&lt;div&gt;IDRAC IP: 10.130.136.40&lt;/div&gt;&lt;div&gt;OS: Windows Server 2016&lt;/div&gt;&lt;div&gt;CPUs: 16 (2x8) RAM: 64GB (2x32) SDD: 480 GB&lt;br&gt;&lt;/div&gt;&lt;div&gt;Open Ports: 514, 1858, 636&lt;/div&gt;&lt;div&gt;Other: Non-Domain Joined&lt;br&gt;&lt;/div&gt;&lt;div&gt;CyberArk role: EPV&lt;br&gt;&lt;/div&gt;" style="text;html=1;strokeColor=none;fillColor=none;align=center;verticalAlign=middle;whiteSpace=wrap;rounded=0;" parent="1" vertex="1">
          <mxGeometry x="115" y="272" width="165" height="98" as="geometry" />
        </mxCell>
        <mxCell id="PBlHZ4TpvklCPcyJVBNF-5" style="edgeStyle=orthogonalEdgeStyle;rounded=0;orthogonalLoop=1;jettySize=auto;html=1;exitX=0.5;exitY=1;exitDx=0;exitDy=0;entryX=0.5;entryY=0;entryDx=0;entryDy=0;" parent="1" source="9HuW_AX4d_CLtjcuJ3QG-38" target="9HuW_AX4d_CLtjcuJ3QG-129" edge="1">
          <mxGeometry relative="1" as="geometry" />
        </mxCell>
        <mxCell id="9HuW_AX4d_CLtjcuJ3QG-38" value="&lt;div&gt;Netscaler Load Balancer&lt;/div&gt;&lt;div&gt;VIP1: Port 80 redirect to 443&lt;/div&gt;&lt;div&gt;Active/Active Round Robin&lt;/div&gt;&lt;div&gt;&lt;br&gt;&lt;/div&gt;&lt;div&gt;VIP2: RDP, SSH, Telnet&lt;br&gt;&lt;/div&gt;" style="shape=parallelogram;perimeter=parallelogramPerimeter;whiteSpace=wrap;html=1;" parent="1" vertex="1">
          <mxGeometry x="305" y="1040" width="313.5" height="110" as="geometry" />
        </mxCell>
        <mxCell id="9HuW_AX4d_CLtjcuJ3QG-39" value="End users: Must be on campus VPN" style="text;html=1;strokeColor=none;fillColor=none;align=center;verticalAlign=middle;whiteSpace=wrap;rounded=0;" parent="1" vertex="1">
          <mxGeometry x="545" y="1295" width="145" height="50" as="geometry" />
        </mxCell>
        <mxCell id="9HuW_AX4d_CLtjcuJ3QG-99" value="Port: 514" style="edgeStyle=orthogonalEdgeStyle;rounded=0;orthogonalLoop=1;jettySize=auto;html=1;exitX=0;exitY=0.5;exitDx=0;exitDy=0;startArrow=classic;startFill=1;endArrow=none;endFill=0;fontSize=12;" parent="1" source="9HuW_AX4d_CLtjcuJ3QG-59" edge="1">
          <mxGeometry relative="1" as="geometry">
            <mxPoint x="880" y="400" as="targetPoint" />
            <Array as="points">
              <mxPoint x="1080" y="470" />
              <mxPoint x="880" y="470" />
            </Array>
          </mxGeometry>
        </mxCell>
        <mxCell id="9HuW_AX4d_CLtjcuJ3QG-59" value="&lt;div&gt;&lt;br&gt;&lt;br&gt;&lt;br&gt;&lt;br&gt;&lt;br&gt;SIEM&lt;br&gt;Syslog&lt;br&gt;&amp;nbsp;Port 514&lt;br&gt;&lt;/div&gt;" style="rounded=0;whiteSpace=wrap;html=1;" parent="1" vertex="1">
          <mxGeometry x="1087.5" y="410" width="80" height="120" as="geometry" />
        </mxCell>
        <mxCell id="9HuW_AX4d_CLtjcuJ3QG-61" value="" style="aspect=fixed;pointerEvents=1;shadow=0;dashed=0;html=1;strokeColor=none;labelPosition=center;verticalLabelPosition=bottom;verticalAlign=top;align=center;fillColor=#00188D;shape=mxgraph.mscae.enterprise.application_server;fontSize=18;" parent="1" vertex="1">
          <mxGeometry x="173.5" y="200" width="43" height="50" as="geometry" />
        </mxCell>
        <mxCell id="9HuW_AX4d_CLtjcuJ3QG-79" value="Application replication&lt;br&gt; over port 1858." style="edgeStyle=orthogonalEdgeStyle;rounded=0;orthogonalLoop=1;jettySize=auto;html=1;exitX=0.75;exitY=1;exitDx=0;exitDy=0;entryX=0.75;entryY=1;entryDx=0;entryDy=0;startArrow=classic;startFill=1;endArrow=classic;endFill=1;fontSize=12;dashed=1;labelBackgroundColor=none;" parent="1" source="9HuW_AX4d_CLtjcuJ3QG-63" target="9HuW_AX4d_CLtjcuJ3QG-66" edge="1">
          <mxGeometry x="-0.6667" y="-27" relative="1" as="geometry">
            <Array as="points">
              <mxPoint x="418" y="410" />
              <mxPoint x="618" y="410" />
            </Array>
            <mxPoint x="-17" y="-7" as="offset" />
          </mxGeometry>
        </mxCell>
        <mxCell id="9HuW_AX4d_CLtjcuJ3QG-63" value="" style="rounded=0;whiteSpace=wrap;html=1;fontSize=18;" parent="1" vertex="1">
          <mxGeometry x="290" y="190" width="170" height="200" as="geometry" />
        </mxCell>
        <mxCell id="pkwpnZTuEIStfYXqcOfN-32" style="edgeStyle=orthogonalEdgeStyle;rounded=0;orthogonalLoop=1;jettySize=auto;html=1;startArrow=classic;startFill=1;endArrow=none;endFill=0;" parent="1" edge="1">
          <mxGeometry relative="1" as="geometry">
            <mxPoint x="377.66666666666663" y="400" as="targetPoint" />
            <mxPoint x="378" y="390" as="sourcePoint" />
          </mxGeometry>
        </mxCell>
        <mxCell id="9HuW_AX4d_CLtjcuJ3QG-64" value="Hostname: ADVANTAGE&lt;br&gt;&lt;div&gt;IP: 10.134.95.11&lt;/div&gt;&lt;div&gt;IDRAC IP: 10.130.136.41&lt;/div&gt;&lt;div&gt;OS: Windows Server 2016&lt;/div&gt;&lt;div&gt;&lt;div&gt;CPUs: 16 (2x8) RAM: 64GB (2x32) SDD: 480 GB&lt;br&gt;&lt;/div&gt;&lt;/div&gt;&lt;div&gt;Open Ports: 514, 1858, 636&lt;/div&gt;&lt;div&gt;Other: Non-Domain Joined&lt;br&gt;&lt;/div&gt;&lt;div&gt;CyberArk role: EPV&lt;br&gt;&lt;/div&gt;&lt;div&gt;&lt;br&gt;&lt;/div&gt;" style="text;html=1;strokeColor=none;fillColor=none;align=center;verticalAlign=middle;whiteSpace=wrap;rounded=0;" parent="1" vertex="1">
          <mxGeometry x="295" y="277" width="165" height="93" as="geometry" />
        </mxCell>
        <mxCell id="9HuW_AX4d_CLtjcuJ3QG-65" value="" style="aspect=fixed;pointerEvents=1;shadow=0;dashed=0;html=1;strokeColor=none;labelPosition=center;verticalLabelPosition=bottom;verticalAlign=top;align=center;fillColor=#00188D;shape=mxgraph.mscae.enterprise.application_server;fontSize=18;" parent="1" vertex="1">
          <mxGeometry x="353.5" y="200" width="43" height="50" as="geometry" />
        </mxCell>
        <mxCell id="9HuW_AX4d_CLtjcuJ3QG-80" style="edgeStyle=orthogonalEdgeStyle;rounded=0;orthogonalLoop=1;jettySize=auto;html=1;exitX=0.75;exitY=1;exitDx=0;exitDy=0;entryX=0.75;entryY=1;entryDx=0;entryDy=0;startArrow=classic;startFill=1;endArrow=classic;endFill=1;fontSize=18;dashed=1;" parent="1" source="9HuW_AX4d_CLtjcuJ3QG-66" target="9HuW_AX4d_CLtjcuJ3QG-69" edge="1">
          <mxGeometry relative="1" as="geometry">
            <Array as="points">
              <mxPoint x="618" y="410" />
              <mxPoint x="798" y="410" />
            </Array>
          </mxGeometry>
        </mxCell>
        <mxCell id="pkwpnZTuEIStfYXqcOfN-31" style="edgeStyle=orthogonalEdgeStyle;rounded=0;orthogonalLoop=1;jettySize=auto;html=1;exitX=0.5;exitY=1;exitDx=0;exitDy=0;startArrow=classic;startFill=1;endArrow=none;endFill=0;" parent="1" source="9HuW_AX4d_CLtjcuJ3QG-66" edge="1">
          <mxGeometry relative="1" as="geometry">
            <mxPoint x="575" y="400" as="targetPoint" />
          </mxGeometry>
        </mxCell>
        <mxCell id="9HuW_AX4d_CLtjcuJ3QG-66" value="" style="rounded=0;whiteSpace=wrap;html=1;fontSize=18;" parent="1" vertex="1">
          <mxGeometry x="490" y="190" width="170" height="200" as="geometry" />
        </mxCell>
        <mxCell id="9HuW_AX4d_CLtjcuJ3QG-67" value="Hostname: PRIVILEGE&lt;br&gt;&lt;div&gt;IP: 10.134.95.12&lt;/div&gt;&lt;div&gt;IDRAC IP: 10.130.136.42&lt;/div&gt;&lt;div&gt;OS: Windows Server 2016&lt;/div&gt;&lt;div&gt;&lt;div&gt;CPUs: 16 (2x8) RAM: 64GB (2x32) SDD: 480 GB&lt;br&gt;&lt;/div&gt;&lt;/div&gt;&lt;div&gt;Open Ports: 514, 1858, 636&lt;/div&gt;&lt;div&gt;Other: Non-Domain Joined&lt;br&gt;&lt;/div&gt;&lt;div&gt;CyberArk role: EPV&lt;br&gt;&lt;/div&gt;" style="text;html=1;strokeColor=none;fillColor=none;align=center;verticalAlign=middle;whiteSpace=wrap;rounded=0;" parent="1" vertex="1">
          <mxGeometry x="495" y="272" width="165" height="98" as="geometry" />
        </mxCell>
        <mxCell id="9HuW_AX4d_CLtjcuJ3QG-68" value="" style="aspect=fixed;pointerEvents=1;shadow=0;dashed=0;html=1;strokeColor=none;labelPosition=center;verticalLabelPosition=bottom;verticalAlign=top;align=center;fillColor=#00188D;shape=mxgraph.mscae.enterprise.application_server;fontSize=18;" parent="1" vertex="1">
          <mxGeometry x="553.5" y="200" width="43" height="50" as="geometry" />
        </mxCell>
        <mxCell id="9HuW_AX4d_CLtjcuJ3QG-93" style="edgeStyle=orthogonalEdgeStyle;rounded=0;orthogonalLoop=1;jettySize=auto;html=1;exitX=0.5;exitY=1;exitDx=0;exitDy=0;startArrow=classic;startFill=1;endArrow=none;endFill=0;fontSize=12;" parent="1" source="9HuW_AX4d_CLtjcuJ3QG-69" edge="1">
          <mxGeometry relative="1" as="geometry">
            <mxPoint x="755" y="400" as="targetPoint" />
            <Array as="points">
              <mxPoint x="755" y="390" />
            </Array>
          </mxGeometry>
        </mxCell>
        <mxCell id="9HuW_AX4d_CLtjcuJ3QG-123" style="edgeStyle=orthogonalEdgeStyle;rounded=0;orthogonalLoop=1;jettySize=auto;html=1;exitX=0.25;exitY=1;exitDx=0;exitDy=0;startArrow=classic;startFill=1;endArrow=classic;endFill=1;fontSize=18;strokeWidth=2;" parent="1" source="9HuW_AX4d_CLtjcuJ3QG-69" edge="1">
          <mxGeometry relative="1" as="geometry">
            <Array as="points">
              <mxPoint x="712" y="460" />
              <mxPoint x="336" y="460" />
            </Array>
            <mxPoint x="336" y="390" as="targetPoint" />
          </mxGeometry>
        </mxCell>
        <mxCell id="9HuW_AX4d_CLtjcuJ3QG-69" value="" style="rounded=0;whiteSpace=wrap;html=1;fontSize=18;" parent="1" vertex="1">
          <mxGeometry x="670" y="190" width="170" height="200" as="geometry" />
        </mxCell>
        <mxCell id="9HuW_AX4d_CLtjcuJ3QG-70" value="Hostname: ENTITLEMENT&lt;br&gt;&lt;div&gt;IP: 10.134.95.13&lt;/div&gt;&lt;div&gt;IDRAC IP: 10.130.136.43&lt;/div&gt;&lt;div&gt;OS: Windows Server 2016&lt;/div&gt;&lt;div&gt;&lt;div&gt;CPUs: 16 (2x8) RAM: 64GB (2x32) SDD: 480 GB&lt;br&gt;&lt;/div&gt;&lt;/div&gt;&lt;div&gt;Open Ports: 514, 1858, 636&lt;/div&gt;&lt;div&gt;Other: Non-Domain Joined&lt;br&gt;&lt;/div&gt;&amp;nbsp;CyberArk role: EPV" style="text;html=1;strokeColor=none;fillColor=none;align=center;verticalAlign=middle;whiteSpace=wrap;rounded=0;" parent="1" vertex="1">
          <mxGeometry x="675" y="272" width="165" height="98" as="geometry" />
        </mxCell>
        <mxCell id="9HuW_AX4d_CLtjcuJ3QG-71" value="" style="aspect=fixed;pointerEvents=1;shadow=0;dashed=0;html=1;strokeColor=none;labelPosition=center;verticalLabelPosition=bottom;verticalAlign=top;align=center;fillColor=#00188D;shape=mxgraph.mscae.enterprise.application_server;fontSize=18;" parent="1" vertex="1">
          <mxGeometry x="733.5" y="200" width="43" height="50" as="geometry" />
        </mxCell>
        <mxCell id="9HuW_AX4d_CLtjcuJ3QG-72" value="WARF Datacenter&lt;br&gt;(Tues Maint)" style="text;html=1;strokeColor=none;fillColor=none;align=center;verticalAlign=middle;whiteSpace=wrap;rounded=0;fontSize=18;fontStyle=1" parent="1" vertex="1">
          <mxGeometry x="510" y="20" width="155" height="90" as="geometry" />
        </mxCell>
        <mxCell id="9HuW_AX4d_CLtjcuJ3QG-84" style="edgeStyle=orthogonalEdgeStyle;rounded=0;orthogonalLoop=1;jettySize=auto;html=1;exitX=0.5;exitY=1;exitDx=0;exitDy=0;entryX=0.5;entryY=0;entryDx=0;entryDy=0;startArrow=classic;startFill=1;endArrow=classic;endFill=1;fontSize=12;" parent="1" source="9HuW_AX4d_CLtjcuJ3QG-83" target="9HuW_AX4d_CLtjcuJ3QG-66" edge="1">
          <mxGeometry relative="1" as="geometry" />
        </mxCell>
        <mxCell id="9HuW_AX4d_CLtjcuJ3QG-85" style="edgeStyle=orthogonalEdgeStyle;rounded=0;orthogonalLoop=1;jettySize=auto;html=1;exitX=0.5;exitY=1;exitDx=0;exitDy=0;entryX=0.5;entryY=0;entryDx=0;entryDy=0;startArrow=classic;startFill=1;endArrow=classic;endFill=1;fontSize=12;" parent="1" source="9HuW_AX4d_CLtjcuJ3QG-83" target="9HuW_AX4d_CLtjcuJ3QG-69" edge="1">
          <mxGeometry relative="1" as="geometry" />
        </mxCell>
        <mxCell id="9HuW_AX4d_CLtjcuJ3QG-83" value="Shared Data Store" style="shape=datastore;whiteSpace=wrap;html=1;" parent="1" vertex="1">
          <mxGeometry x="707.5" y="20" width="85" height="130" as="geometry" />
        </mxCell>
        <mxCell id="9HuW_AX4d_CLtjcuJ3QG-86" value="" style="aspect=fixed;pointerEvents=1;shadow=0;dashed=0;html=1;strokeColor=none;labelPosition=center;verticalLabelPosition=bottom;verticalAlign=top;align=center;fillColor=#00188D;shape=mxgraph.mscae.enterprise.secure_virtual_machine;fontSize=12;" parent="1" vertex="1">
          <mxGeometry x="180" y="755" width="50" height="38" as="geometry" />
        </mxCell>
        <mxCell id="9HuW_AX4d_CLtjcuJ3QG-87" value="" style="aspect=fixed;pointerEvents=1;shadow=0;dashed=0;html=1;strokeColor=none;labelPosition=center;verticalLabelPosition=bottom;verticalAlign=top;align=center;fillColor=#00188D;shape=mxgraph.mscae.enterprise.ad_fs;fontSize=12;" parent="1" vertex="1">
          <mxGeometry x="1140" y="230" width="40" height="50" as="geometry" />
        </mxCell>
        <mxCell id="9HuW_AX4d_CLtjcuJ3QG-89" value="&lt;div&gt;Campus LDAP&lt;/div&gt;&lt;div&gt;Port 636&lt;br&gt;&lt;/div&gt;" style="text;html=1;strokeColor=none;fillColor=none;align=center;verticalAlign=middle;whiteSpace=wrap;rounded=0;fontSize=12;" parent="1" vertex="1">
          <mxGeometry x="1087.5" y="302" width="65" height="20" as="geometry" />
        </mxCell>
        <mxCell id="9HuW_AX4d_CLtjcuJ3QG-95" value="Hostname: PAWS&lt;br&gt;&lt;div&gt;IP: 10.134.94.202&lt;/div&gt;&lt;div&gt;OS: Windows Server 2016&lt;/div&gt;&lt;div&gt;CPUs: 8vCPU RAM: 8GB&amp;nbsp; HDD: 80GB&lt;br&gt;&lt;/div&gt;&lt;div&gt;Open Ports: 1858&lt;br&gt;&lt;/div&gt;&lt;div&gt;Other: Domain Joined&lt;br&gt;&lt;/div&gt;&amp;nbsp;CyberArk role: PSM" style="text;html=1;strokeColor=none;fillColor=none;align=center;verticalAlign=middle;whiteSpace=wrap;rounded=0;" parent="1" vertex="1">
          <mxGeometry x="125" y="800" width="150" height="130" as="geometry" />
        </mxCell>
        <mxCell id="9HuW_AX4d_CLtjcuJ3QG-98" value="" style="aspect=fixed;pointerEvents=1;shadow=0;dashed=0;html=1;strokeColor=none;labelPosition=center;verticalLabelPosition=bottom;verticalAlign=top;align=center;fillColor=#00188D;shape=mxgraph.mscae.enterprise.monitor_running_apps;fontSize=12;" parent="1" vertex="1">
          <mxGeometry x="1095.5" y="439" width="50" height="39" as="geometry" />
        </mxCell>
        <mxCell id="9HuW_AX4d_CLtjcuJ3QG-100" value="" style="rounded=0;whiteSpace=wrap;html=1;fontSize=18;" parent="1" vertex="1">
          <mxGeometry x="300" y="743" width="170" height="197" as="geometry" />
        </mxCell>
        <mxCell id="9HuW_AX4d_CLtjcuJ3QG-101" value="" style="aspect=fixed;pointerEvents=1;shadow=0;dashed=0;html=1;strokeColor=none;labelPosition=center;verticalLabelPosition=bottom;verticalAlign=top;align=center;fillColor=#00188D;shape=mxgraph.mscae.enterprise.secure_virtual_machine;fontSize=12;" parent="1" vertex="1">
          <mxGeometry x="360" y="755" width="50" height="38" as="geometry" />
        </mxCell>
        <mxCell id="9HuW_AX4d_CLtjcuJ3QG-102" value="Hostname: PART&lt;br&gt;&lt;div&gt;IP: 10.134.94.200&lt;/div&gt;&lt;div&gt;OS: Windows Server 2016&lt;/div&gt;&lt;div&gt;CPUs: 4vCPU RAM: 8GB&amp;nbsp; HDD: 80GB&lt;br&gt;&lt;/div&gt;&lt;div&gt;Open Ports: 443,1858&lt;br&gt;&lt;/div&gt;&lt;div&gt;Other: Domain Joined&lt;br&gt;&lt;/div&gt;&amp;nbsp;CyberArk role: PVWA" style="text;html=1;strokeColor=none;fillColor=none;align=center;verticalAlign=middle;whiteSpace=wrap;rounded=0;" parent="1" vertex="1">
          <mxGeometry x="305" y="800" width="150" height="140" as="geometry" />
        </mxCell>
        <mxCell id="9HuW_AX4d_CLtjcuJ3QG-103" value="" style="rounded=0;whiteSpace=wrap;html=1;fontSize=18;" parent="1" vertex="1">
          <mxGeometry x="491" y="743" width="170" height="197" as="geometry" />
        </mxCell>
        <mxCell id="9HuW_AX4d_CLtjcuJ3QG-104" value="" style="aspect=fixed;pointerEvents=1;shadow=0;dashed=0;html=1;strokeColor=none;labelPosition=center;verticalLabelPosition=bottom;verticalAlign=top;align=center;fillColor=#00188D;shape=mxgraph.mscae.enterprise.secure_virtual_machine;fontSize=12;" parent="1" vertex="1">
          <mxGeometry x="551" y="755" width="50" height="38" as="geometry" />
        </mxCell>
        <mxCell id="9HuW_AX4d_CLtjcuJ3QG-105" value="Hostname: TRAP&lt;br&gt;&lt;div&gt;IP: 10.134.94.201&lt;/div&gt;&lt;div&gt;OS: Windows Server 2016&lt;/div&gt;&lt;div&gt;CPUs: 4vCPU RAM: 8GB&amp;nbsp; HDD: 80GB&lt;br&gt;&lt;/div&gt;&lt;div&gt;Open Ports: 443, 1858&lt;br&gt;&lt;/div&gt;&lt;div&gt;Other: Domain Joined&lt;br&gt;&lt;/div&gt;&amp;nbsp;CyberArk role: PVWA" style="text;html=1;strokeColor=none;fillColor=none;align=center;verticalAlign=middle;whiteSpace=wrap;rounded=0;" parent="1" vertex="1">
          <mxGeometry x="496" y="800" width="150" height="140" as="geometry" />
        </mxCell>
        <mxCell id="9HuW_AX4d_CLtjcuJ3QG-106" value="" style="rounded=0;whiteSpace=wrap;html=1;fontSize=18;" parent="1" vertex="1">
          <mxGeometry x="666" y="743" width="170" height="197" as="geometry" />
        </mxCell>
        <mxCell id="9HuW_AX4d_CLtjcuJ3QG-107" value="" style="aspect=fixed;pointerEvents=1;shadow=0;dashed=0;html=1;strokeColor=none;labelPosition=center;verticalLabelPosition=bottom;verticalAlign=top;align=center;fillColor=#00188D;shape=mxgraph.mscae.enterprise.secure_virtual_machine;fontSize=12;" parent="1" vertex="1">
          <mxGeometry x="731" y="760" width="50" height="38" as="geometry" />
        </mxCell>
        <mxCell id="15mZKL4qg4X-mbOuNsfx-2" style="edgeStyle=orthogonalEdgeStyle;rounded=0;orthogonalLoop=1;jettySize=auto;html=1;exitX=0.5;exitY=1;exitDx=0;exitDy=0;entryX=0.75;entryY=0;entryDx=0;entryDy=0;" edge="1" parent="1" source="9HuW_AX4d_CLtjcuJ3QG-108" target="9HuW_AX4d_CLtjcuJ3QG-38">
          <mxGeometry relative="1" as="geometry">
            <Array as="points">
              <mxPoint x="754" y="1000" />
              <mxPoint x="540" y="1000" />
            </Array>
          </mxGeometry>
        </mxCell>
        <mxCell id="9HuW_AX4d_CLtjcuJ3QG-108" value="Hostname: SWAP&lt;br&gt;&lt;div&gt;IP: 10.134.94.203&lt;/div&gt;&lt;div&gt;OS: Windows Server 2016&lt;/div&gt;&lt;div&gt;&lt;div&gt;CPUs: 8vCPU RAM: 8GB&amp;nbsp; HDD: 80GB&lt;br&gt;&lt;/div&gt;&lt;/div&gt;&lt;div&gt;Open Ports: 1858, &lt;br&gt;&lt;/div&gt;&lt;div&gt;Other: Domain Joined&lt;br&gt;&lt;/div&gt;&amp;nbsp;CyberArk role: PSM" style="text;html=1;strokeColor=none;fillColor=none;align=center;verticalAlign=middle;whiteSpace=wrap;rounded=0;" parent="1" vertex="1">
          <mxGeometry x="676" y="800" width="155" height="140" as="geometry" />
        </mxCell>
        <mxCell id="9HuW_AX4d_CLtjcuJ3QG-109" style="edgeStyle=orthogonalEdgeStyle;rounded=0;orthogonalLoop=1;jettySize=auto;html=1;exitX=0.5;exitY=1;exitDx=0;exitDy=0;entryX=0.5;entryY=0;entryDx=0;entryDy=0;startArrow=none;startFill=0;endArrow=none;endFill=0;fontSize=18;dashed=1;" parent="1" edge="1">
          <mxGeometry relative="1" as="geometry">
            <Array as="points">
              <mxPoint x="476" y="486" />
              <mxPoint x="476" y="486" />
            </Array>
            <mxPoint x="481" y="950" as="sourcePoint" />
            <mxPoint x="481" y="486" as="targetPoint" />
          </mxGeometry>
        </mxCell>
        <mxCell id="9HuW_AX4d_CLtjcuJ3QG-110" value="CCI (VMs in MFCB)" style="text;html=1;strokeColor=none;fillColor=none;align=center;verticalAlign=middle;whiteSpace=wrap;rounded=0;fontSize=18;fontStyle=1" parent="1" vertex="1">
          <mxGeometry x="496" y="495.5" width="180" height="20" as="geometry" />
        </mxCell>
        <mxCell id="9HuW_AX4d_CLtjcuJ3QG-111" value="" style="aspect=fixed;pointerEvents=1;shadow=0;dashed=0;html=1;strokeColor=none;labelPosition=center;verticalLabelPosition=bottom;verticalAlign=top;align=center;fillColor=#00188D;shape=mxgraph.azure.load_balancer_generic;fontSize=18;" parent="1" vertex="1">
          <mxGeometry x="341.5" y="1090" width="37" height="50" as="geometry" />
        </mxCell>
        <mxCell id="9HuW_AX4d_CLtjcuJ3QG-112" value="" style="aspect=fixed;pointerEvents=1;shadow=0;dashed=0;html=1;strokeColor=none;labelPosition=center;verticalLabelPosition=bottom;verticalAlign=top;align=center;fillColor=#00188D;shape=mxgraph.azure.laptop;fontSize=18;" parent="1" vertex="1">
          <mxGeometry x="550" y="1265" width="50" height="30" as="geometry" />
        </mxCell>
        <mxCell id="9HuW_AX4d_CLtjcuJ3QG-128" value="" style="aspect=fixed;pointerEvents=1;shadow=0;dashed=0;html=1;strokeColor=none;labelPosition=center;verticalLabelPosition=bottom;verticalAlign=top;align=center;fillColor=#00188D;shape=mxgraph.azure.computer;fontSize=18;" parent="1" vertex="1">
          <mxGeometry x="620" y="1258" width="50" height="45" as="geometry" />
        </mxCell>
        <mxCell id="9HuW_AX4d_CLtjcuJ3QG-129" value="" style="shape=process;whiteSpace=wrap;html=1;backgroundOutline=1;fontSize=18;" parent="1" vertex="1">
          <mxGeometry x="100" y="1200" width="270" height="210" as="geometry" />
        </mxCell>
        <mxCell id="9HuW_AX4d_CLtjcuJ3QG-130" value="" style="aspect=fixed;pointerEvents=1;shadow=0;dashed=0;html=1;strokeColor=none;labelPosition=center;verticalLabelPosition=bottom;verticalAlign=top;align=center;fillColor=#00188D;shape=mxgraph.mscae.enterprise.database_server;fontSize=18;" parent="1" vertex="1">
          <mxGeometry x="155" y="1220" width="38" height="50" as="geometry" />
        </mxCell>
        <mxCell id="9HuW_AX4d_CLtjcuJ3QG-131" value="" style="aspect=fixed;pointerEvents=1;shadow=0;dashed=0;html=1;strokeColor=none;labelPosition=center;verticalLabelPosition=bottom;verticalAlign=top;align=center;fillColor=#00188D;shape=mxgraph.mscae.enterprise.windows_server;fontSize=18;" parent="1" vertex="1">
          <mxGeometry x="205" y="1220" width="39" height="50" as="geometry" />
        </mxCell>
        <mxCell id="9HuW_AX4d_CLtjcuJ3QG-132" value="" style="aspect=fixed;pointerEvents=1;shadow=0;dashed=0;html=1;strokeColor=none;labelPosition=center;verticalLabelPosition=bottom;verticalAlign=top;align=center;fillColor=#00188D;shape=mxgraph.azure.server_rack;fontSize=18;" parent="1" vertex="1">
          <mxGeometry x="255" y="1220" width="50" height="50" as="geometry" />
        </mxCell>
        <mxCell id="9HuW_AX4d_CLtjcuJ3QG-133" value="&lt;div&gt;Servers that will be connected to via PSM&lt;/div&gt;&lt;div&gt;Protocols: RDP, SSH, Telnet&lt;br&gt;&lt;/div&gt;" style="text;html=1;strokeColor=none;fillColor=none;align=center;verticalAlign=middle;whiteSpace=wrap;rounded=0;fontSize=18;" parent="1" vertex="1">
          <mxGeometry x="150" y="1320" width="150" height="50" as="geometry" />
        </mxCell>
        <mxCell id="HH7lIpdcJhDZPSpfmfqb-1" value="" style="rounded=0;whiteSpace=wrap;html=1;fontSize=18;" parent="1" vertex="1">
          <mxGeometry x="297.5" y="530" width="170" height="190" as="geometry" />
        </mxCell>
        <mxCell id="HH7lIpdcJhDZPSpfmfqb-2" value="" style="aspect=fixed;pointerEvents=1;shadow=0;dashed=0;html=1;strokeColor=none;labelPosition=center;verticalLabelPosition=bottom;verticalAlign=top;align=center;fillColor=#00188D;shape=mxgraph.mscae.enterprise.secure_virtual_machine;fontSize=12;" parent="1" vertex="1">
          <mxGeometry x="357.5" y="542" width="50" height="38" as="geometry" />
        </mxCell>
        <mxCell id="HH7lIpdcJhDZPSpfmfqb-3" value="Hostname: PLUG&lt;br&gt;&lt;div&gt;IP: 10.134.94.204&lt;/div&gt;&lt;div&gt;OS: Windows Server 2016&lt;/div&gt;&lt;div&gt;&lt;div&gt;CPUs: 4vCPU RAM: 8GB&amp;nbsp; HDD: 80GB&lt;br&gt;&lt;/div&gt;&lt;/div&gt;&lt;div&gt;Open Ports: 1858&lt;br&gt;&lt;/div&gt;&lt;div&gt;Other: Domain Joined&lt;br&gt;&lt;/div&gt;&amp;nbsp;CyberArk role: CPM" style="text;html=1;strokeColor=none;fillColor=none;align=center;verticalAlign=middle;whiteSpace=wrap;rounded=0;" parent="1" vertex="1">
          <mxGeometry x="302.5" y="590" width="157.5" height="120" as="geometry" />
        </mxCell>
        <mxCell id="pkwpnZTuEIStfYXqcOfN-1" value="" style="rounded=0;whiteSpace=wrap;html=1;fontSize=18;" parent="1" vertex="1">
          <mxGeometry x="493.5" y="530" width="170" height="190" as="geometry" />
        </mxCell>
        <mxCell id="pkwpnZTuEIStfYXqcOfN-2" value="" style="aspect=fixed;pointerEvents=1;shadow=0;dashed=0;html=1;strokeColor=none;labelPosition=center;verticalLabelPosition=bottom;verticalAlign=top;align=center;fillColor=#00188D;shape=mxgraph.mscae.enterprise.secure_virtual_machine;fontSize=12;" parent="1" vertex="1">
          <mxGeometry x="553.5" y="539" width="50" height="38" as="geometry" />
        </mxCell>
        <mxCell id="pkwpnZTuEIStfYXqcOfN-3" value="Hostname: GULP&lt;br&gt;&lt;div&gt;IP: 10.134.94.205&lt;/div&gt;&lt;div&gt;OS: Windows Server 2016&lt;/div&gt;&lt;div&gt;&lt;div&gt;CPUs: 4vCPU RAM: 8GB&amp;nbsp; HDD: 80GB&lt;br&gt;&lt;/div&gt;&lt;/div&gt;&lt;div&gt;Open Ports: 1858&lt;br&gt;&lt;/div&gt;&lt;div&gt;Other: Domain Joined&lt;br&gt;&lt;/div&gt;&amp;nbsp;CyberArk role: CPM (inactive)" style="text;html=1;strokeColor=none;fillColor=none;align=center;verticalAlign=middle;whiteSpace=wrap;rounded=0;" parent="1" vertex="1">
          <mxGeometry x="491" y="590" width="170" height="120" as="geometry" />
        </mxCell>
        <mxCell id="pkwpnZTuEIStfYXqcOfN-4" value="" style="rounded=0;whiteSpace=wrap;html=1;fontSize=18;" parent="1" vertex="1">
          <mxGeometry x="122.5" y="530" width="170" height="190" as="geometry" />
        </mxCell>
        <mxCell id="pkwpnZTuEIStfYXqcOfN-5" value="" style="aspect=fixed;pointerEvents=1;shadow=0;dashed=0;html=1;strokeColor=none;labelPosition=center;verticalLabelPosition=bottom;verticalAlign=top;align=center;fillColor=#00188D;shape=mxgraph.mscae.enterprise.secure_virtual_machine;fontSize=12;" parent="1" vertex="1">
          <mxGeometry x="182.5" y="542" width="50" height="38" as="geometry" />
        </mxCell>
        <mxCell id="pkwpnZTuEIStfYXqcOfN-6" value="Hostname: PEEK&lt;br&gt;&lt;div&gt;IP: 10.134.94.206&lt;/div&gt;&lt;div&gt;OS: CentOS&lt;br&gt;&lt;/div&gt;&lt;div&gt;CPUs: 4vCPU RAM: 16GB&amp;nbsp; HDD: 80GB&lt;br&gt;&lt;/div&gt;&lt;div&gt;Open Ports: 1858&lt;br&gt;&lt;/div&gt;&lt;div&gt;Other: Domain Joined&lt;br&gt;&lt;/div&gt;&amp;nbsp;CyberArk role: PTA" style="text;html=1;strokeColor=none;fillColor=none;align=center;verticalAlign=middle;whiteSpace=wrap;rounded=0;" parent="1" vertex="1">
          <mxGeometry x="127.5" y="590" width="162.5" height="120" as="geometry" />
        </mxCell>
        <mxCell id="pkwpnZTuEIStfYXqcOfN-7" value="" style="rounded=0;whiteSpace=wrap;html=1;fontSize=18;" parent="1" vertex="1">
          <mxGeometry x="668.5" y="530" width="170" height="190" as="geometry" />
        </mxCell>
        <mxCell id="pkwpnZTuEIStfYXqcOfN-8" value="" style="aspect=fixed;pointerEvents=1;shadow=0;dashed=0;html=1;strokeColor=none;labelPosition=center;verticalLabelPosition=bottom;verticalAlign=top;align=center;fillColor=#00188D;shape=mxgraph.mscae.enterprise.secure_virtual_machine;fontSize=12;" parent="1" vertex="1">
          <mxGeometry x="728.5" y="542" width="50" height="38" as="geometry" />
        </mxCell>
        <mxCell id="pkwpnZTuEIStfYXqcOfN-9" value="Hostname: KEEP&lt;br&gt;&lt;div&gt;IP: 10.134.94.207&lt;/div&gt;&lt;div&gt;OS: CentOS&lt;br&gt;&lt;/div&gt;&lt;div&gt;&lt;div&gt;CPUs: 4vCPU RAM: 16GB&amp;nbsp; HDD: 80GB&lt;br&gt;&lt;/div&gt;&lt;/div&gt;&lt;div&gt;Open Ports: 1858&lt;br&gt;&lt;/div&gt;&lt;div&gt;Other: Domain Joined&lt;br&gt;&lt;/div&gt;&amp;nbsp;CyberArk role: PTA" style="text;html=1;strokeColor=none;fillColor=none;align=center;verticalAlign=middle;whiteSpace=wrap;rounded=0;" parent="1" vertex="1">
          <mxGeometry x="673.5" y="590" width="157.5" height="120" as="geometry" />
        </mxCell>
        <mxCell id="15mZKL4qg4X-mbOuNsfx-3" style="edgeStyle=orthogonalEdgeStyle;rounded=0;orthogonalLoop=1;jettySize=auto;html=1;exitX=0.75;exitY=1;exitDx=0;exitDy=0;entryX=0.25;entryY=0;entryDx=0;entryDy=0;" edge="1" parent="1" source="wK3Uw1pxNS2twAb2fiw_-1" target="9HuW_AX4d_CLtjcuJ3QG-38">
          <mxGeometry relative="1" as="geometry">
            <Array as="points">
              <mxPoint x="73" y="1010" />
              <mxPoint x="383" y="1010" />
            </Array>
          </mxGeometry>
        </mxCell>
        <mxCell id="wK3Uw1pxNS2twAb2fiw_-1" value="&lt;span style=&quot;font-size: 12px&quot;&gt;&lt;br&gt;&lt;br&gt;Hostname: POOL&lt;/span&gt;&lt;br style=&quot;font-size: 12px&quot;&gt;&lt;div style=&quot;font-size: 12px&quot;&gt;IP:&amp;nbsp;&lt;/div&gt;&lt;div style=&quot;font-size: 12px&quot;&gt;OS: CentOS&lt;br&gt;&lt;/div&gt;&lt;div style=&quot;font-size: 12px&quot;&gt;CPUs: 8vCPU RAM: 8GB&amp;nbsp; HDD: 80GB&lt;br&gt;&lt;/div&gt;&lt;div style=&quot;font-size: 12px&quot;&gt;Open Ports: 1858&lt;br&gt;&lt;/div&gt;&lt;div style=&quot;font-size: 12px&quot;&gt;Other: Domain Joined&lt;br&gt;&lt;/div&gt;&lt;span style=&quot;font-size: 12px&quot;&gt;&amp;nbsp;CyberArk role: PSM for SSH&lt;/span&gt;" style="rounded=0;whiteSpace=wrap;html=1;fontSize=18;" parent="1" vertex="1">
          <mxGeometry x="-55" y="750" width="170" height="190" as="geometry" />
        </mxCell>
        <mxCell id="15mZKL4qg4X-mbOuNsfx-4" style="edgeStyle=orthogonalEdgeStyle;rounded=0;orthogonalLoop=1;jettySize=auto;html=1;exitX=0.25;exitY=1;exitDx=0;exitDy=0;entryX=0.75;entryY=0;entryDx=0;entryDy=0;" edge="1" parent="1" source="wK3Uw1pxNS2twAb2fiw_-2" target="9HuW_AX4d_CLtjcuJ3QG-38">
          <mxGeometry relative="1" as="geometry">
            <Array as="points">
              <mxPoint x="884" y="1000" />
              <mxPoint x="540" y="1000" />
            </Array>
          </mxGeometry>
        </mxCell>
        <mxCell id="wK3Uw1pxNS2twAb2fiw_-2" value="&lt;span style=&quot;font-size: 12px&quot;&gt;&lt;br&gt;&lt;br&gt;Hostname: LOOP&lt;/span&gt;&lt;br style=&quot;font-size: 12px&quot;&gt;&lt;div style=&quot;font-size: 12px&quot;&gt;IP: (pending subnet creation)&lt;/div&gt;&lt;div style=&quot;font-size: 12px&quot;&gt;OS: CentOS&lt;br&gt;&lt;/div&gt;&lt;div style=&quot;font-size: 12px&quot;&gt;CPUs: 8vCPU RAM: 8GB&amp;nbsp; HDD: 80GB&lt;br&gt;&lt;/div&gt;&lt;div style=&quot;font-size: 12px&quot;&gt;Open Ports: 1858&lt;br&gt;&lt;/div&gt;&lt;div style=&quot;font-size: 12px&quot;&gt;Other: Domain Joined&lt;br&gt;&lt;/div&gt;&lt;span style=&quot;font-size: 12px&quot;&gt;&amp;nbsp;CyberArk role: PSM for SSH&lt;/span&gt;" style="rounded=0;whiteSpace=wrap;html=1;fontSize=18;" parent="1" vertex="1">
          <mxGeometry x="841" y="750" width="170" height="190" as="geometry" />
        </mxCell>
        <mxCell id="wK3Uw1pxNS2twAb2fiw_-4" value="" style="aspect=fixed;pointerEvents=1;shadow=0;dashed=0;html=1;strokeColor=none;labelPosition=center;verticalLabelPosition=bottom;verticalAlign=top;align=center;fillColor=#00188D;shape=mxgraph.mscae.enterprise.secure_virtual_machine;fontSize=12;" parent="1" vertex="1">
          <mxGeometry x="5" y="759" width="50" height="38" as="geometry" />
        </mxCell>
        <mxCell id="wK3Uw1pxNS2twAb2fiw_-5" value="" style="aspect=fixed;pointerEvents=1;shadow=0;dashed=0;html=1;strokeColor=none;labelPosition=center;verticalLabelPosition=bottom;verticalAlign=top;align=center;fillColor=#00188D;shape=mxgraph.mscae.enterprise.secure_virtual_machine;fontSize=12;" parent="1" vertex="1">
          <mxGeometry x="901" y="762" width="50" height="38" as="geometry" />
        </mxCell>
        <mxCell id="15mZKL4qg4X-mbOuNsfx-6" value="Subnet: 10.134.92.0/26" style="text;html=1;strokeColor=none;fillColor=none;align=center;verticalAlign=middle;whiteSpace=wrap;rounded=0;dashed=1;" vertex="1" parent="1">
          <mxGeometry x="30" y="390" width="40" height="20" as="geometry" />
        </mxCell>
        <mxCell id="15mZKL4qg4X-mbOuNsfx-8" value="Subnet: 10.134.92.192/26" style="text;html=1;strokeColor=none;fillColor=none;align=center;verticalAlign=middle;whiteSpace=wrap;rounded=0;dashed=1;" vertex="1" parent="1">
          <mxGeometry x="5" y="610" width="40" height="20" as="geometry" />
        </mxCell>
      </root>
    </mxGraphModel>
  </diagram>
</mxfile>
